<svg width="20" height="20" viewBox="0 0 18 18" fill="none" xmlns="http://www.w3.org/2000/svg">
<path d="M18 9C18 13.9706 13.9706 18 9 18C4.02944 18 0 13.9706 0 9C0 4.02944 4.02944 0 9 0C13.9706 0 18 4.02944 18 9Z" fill="#FF6D5B"/>
<path d="M2.84988 6.83168V5.72727H8.65243V6.83168H6.40456V13H5.09774V6.83168H2.84988Z" fill="white"/>
<path d="M13.7235 7.72656C13.6903 7.41643 13.5506 7.17495 13.3044 7.00213C13.0606 6.82931 12.7433 6.7429 12.3527 6.7429C12.0781 6.7429 11.8425 6.78433 11.646 6.86719C11.4495 6.95005 11.2992 7.0625 11.195 7.20455C11.0909 7.34659 11.0376 7.50876 11.0352 7.69105C11.0352 7.84257 11.0696 7.97396 11.1382 8.08523C11.2093 8.1965 11.3051 8.29119 11.4259 8.36932C11.5466 8.44508 11.6804 8.509 11.8271 8.56108C11.9739 8.61316 12.1219 8.65696 12.271 8.69247L12.9529 8.86293C13.2275 8.92685 13.4914 9.01326 13.7448 9.12216C14.0004 9.23106 14.2289 9.36837 14.4301 9.53409C14.6337 9.69981 14.7947 9.89986 14.9131 10.1342C15.0315 10.3686 15.0906 10.6432 15.0906 10.9581C15.0906 11.3842 14.9817 11.7595 14.7639 12.0838C14.5461 12.4058 14.2313 12.6579 13.8193 12.8402C13.4098 13.0201 12.9138 13.1101 12.3314 13.1101C11.7656 13.1101 11.2744 13.0225 10.8577 12.8473C10.4434 12.6721 10.1191 12.4164 9.88468 12.0803C9.65267 11.7441 9.5272 11.3345 9.50826 10.8516H10.8044C10.8234 11.1049 10.9015 11.3156 11.0388 11.4837C11.1761 11.6518 11.3548 11.7772 11.575 11.8601C11.7976 11.9429 12.0461 11.9844 12.3208 11.9844C12.6072 11.9844 12.8582 11.9418 13.0736 11.8565C13.2914 11.7689 13.4619 11.6482 13.585 11.4943C13.7081 11.3381 13.7708 11.1558 13.7732 10.9474C13.7708 10.758 13.7152 10.6018 13.6063 10.4787C13.4974 10.3532 13.3447 10.2491 13.1482 10.1662C12.954 10.081 12.7268 10.0052 12.4664 9.93892L11.6389 9.72585C11.04 9.57197 10.5665 9.33878 10.2185 9.02628C9.87284 8.71141 9.70002 8.29356 9.70002 7.77273C9.70002 7.34422 9.81602 6.96899 10.048 6.64702C10.2824 6.32505 10.6008 6.07528 11.0033 5.89773C11.4057 5.7178 11.8615 5.62784 12.3705 5.62784C12.8866 5.62784 13.3387 5.7178 13.727 5.89773C14.1176 6.07528 14.4242 6.32268 14.6468 6.63991C14.8693 6.95478 14.9841 7.317 14.9912 7.72656H13.7235Z" fill="white"/>
</svg>
