<svg width="101" height="20" viewBox="0 0 101 20" fill="none" xmlns="http://www.w3.org/2000/svg">
<path d="M13.0559 0.247812V2.95981H8.59194V16.9998H5.23194V2.95981H0.767944V0.247812H13.0559Z" fill="black"/>
<path d="M25.7795 13.8078H19.1075L18.0035 16.9998H14.4755L20.4995 0.223811H24.4115L30.4355 16.9998H26.8835L25.7795 13.8078ZM24.8675 11.1198L22.4435 4.11181L20.0195 11.1198H24.8675Z" fill="black"/>
<path d="M41.3272 16.9998L37.6312 10.4718H36.0472V16.9998H32.6872V0.247812H38.9752C40.2712 0.247812 41.3752 0.479812 42.2872 0.943812C43.1992 1.39181 43.8792 2.00781 44.3272 2.79181C44.7912 3.55981 45.0232 4.42381 45.0232 5.38381C45.0232 6.48781 44.7032 7.48781 44.0632 8.38381C43.4232 9.26381 42.4712 9.87181 41.2072 10.2078L45.2152 16.9998H41.3272ZM36.0472 7.95181H38.8552C39.7672 7.95181 40.4472 7.73581 40.8952 7.30381C41.3432 6.85581 41.5672 6.23981 41.5672 5.45581C41.5672 4.68781 41.3432 4.09581 40.8952 3.67981C40.4472 3.24781 39.7672 3.03181 38.8552 3.03181H36.0472V7.95181Z" fill="black"/>
<path d="M51.4222 0.247812V16.9998H48.0622V0.247812H51.4222Z" fill="black"/>
<path d="M67.2219 19.9518L64.6779 16.9038C63.9739 17.0798 63.2539 17.1678 62.5179 17.1678C60.9499 17.1678 59.5099 16.7998 58.1979 16.0638C56.8859 15.3278 55.8459 14.3118 55.0779 13.0158C54.3099 11.7038 53.9259 10.2238 53.9259 8.57581C53.9259 6.94381 54.3099 5.47981 55.0779 4.18381C55.8459 2.87181 56.8859 1.84781 58.1979 1.11181C59.5099 0.375812 60.9499 0.0078125 62.5179 0.0078125C64.1019 0.0078125 65.5419 0.375812 66.8379 1.11181C68.1499 1.84781 69.1819 2.87181 69.9339 4.18381C70.7019 5.47981 71.0859 6.94381 71.0859 8.57581C71.0859 10.0638 70.7659 11.4238 70.1259 12.6558C69.5019 13.8718 68.6459 14.8638 67.5579 15.6318L71.3979 19.9518H67.2219ZM57.3819 8.57581C57.3819 9.69581 57.5979 10.6798 58.0299 11.5278C58.4619 12.3758 59.0619 13.0318 59.8299 13.4958C60.6139 13.9438 61.5099 14.1678 62.5179 14.1678C63.5259 14.1678 64.4139 13.9438 65.1819 13.4958C65.9499 13.0318 66.5499 12.3758 66.9819 11.5278C67.4139 10.6798 67.6299 9.69581 67.6299 8.57581C67.6299 7.45581 67.4139 6.47981 66.9819 5.64781C66.5499 4.79981 65.9499 4.15181 65.1819 3.70381C64.4139 3.25581 63.5259 3.03181 62.5179 3.03181C61.5099 3.03181 60.6139 3.25581 59.8299 3.70381C59.0619 4.15181 58.4619 4.79981 58.0299 5.64781C57.5979 6.47981 57.3819 7.45581 57.3819 8.57581Z" fill="black"/>
<path d="M93.2473 0.247812V16.9998H89.8873V9.87181H82.7113V16.9998H79.3513V0.247812H82.7113V7.13581H89.8873V0.247812H93.2473Z" fill="black"/>
<path d="M98.0424 17.1678C97.4344 17.1678 96.9304 16.9838 96.5304 16.6158C96.1464 16.2318 95.9544 15.7598 95.9544 15.1998C95.9544 14.6398 96.1464 14.1758 96.5304 13.8078C96.9304 13.4238 97.4344 13.2318 98.0424 13.2318C98.6344 13.2318 99.1224 13.4238 99.5064 13.8078C99.8904 14.1758 100.082 14.6398 100.082 15.1998C100.082 15.7598 99.8904 16.2318 99.5064 16.6158C99.1224 16.9838 98.6344 17.1678 98.0424 17.1678Z" fill="black"/>
</svg>
